<svg width="35" height="35" viewBox="0 0 35 35" fill="none" xmlns="http://www.w3.org/2000/svg">
<path d="M35.0001 17.5652C35.0001 7.86316 27.2467 0 17.68 0C8.11333 0 0.359863 7.86316 0.359863 17.5652C0.359863 25.7989 5.95508 32.7152 13.4988 34.6158V22.9308H9.92653V17.5652H13.4988V15.2529C13.4988 9.27661 16.1645 6.50461 21.9559 6.50461C23.0519 6.50461 24.9463 6.72417 25.7244 6.94374V11.8016C25.3184 11.7604 24.608 11.733 23.7217 11.733C20.8802 11.733 19.7841 12.824 19.7841 15.6577V17.5652H25.4402L24.466 22.9308H19.7774V35C28.3562 33.9502 35.0001 26.5468 35.0001 17.5652Z" fill="#A65400"/>
</svg>
