<svg width="32" height="32" viewBox="0 0 32 32" fill="none" xmlns="http://www.w3.org/2000/svg">
<path d="M15.9707 8.09823C11.6677 8.09823 8.1969 11.6181 8.1969 15.982C8.1969 20.3458 11.6677 23.8657 15.9707 23.8657C20.2736 23.8657 23.7444 20.3458 23.7444 15.982C23.7444 11.6181 20.2736 8.09823 15.9707 8.09823ZM15.9707 21.1074C13.19 21.1074 10.9167 18.8089 10.9167 15.982C10.9167 13.1551 13.1832 10.8565 15.9707 10.8565C18.7581 10.8565 21.0246 13.1551 21.0246 15.982C21.0246 18.8089 18.7514 21.1074 15.9707 21.1074ZM25.8756 7.77575C25.8756 8.7981 25.0637 9.6146 24.0624 9.6146C23.0543 9.6146 22.2492 8.79124 22.2492 7.77575C22.2492 6.76026 23.0611 5.93689 24.0624 5.93689C25.0637 5.93689 25.8756 6.76026 25.8756 7.77575ZM31.0243 9.64205C30.9093 7.17881 30.3545 4.99688 28.5751 3.19919C26.8025 1.40151 24.651 0.838872 22.2222 0.715367C19.7189 0.571277 12.2157 0.571277 9.71242 0.715367C7.2903 0.832011 5.13882 1.39465 3.35945 3.19233C1.58007 4.99002 1.03205 7.17194 0.91027 9.63519C0.768191 12.1739 0.768191 19.7832 0.91027 22.3219C1.02529 24.7852 1.58007 26.9671 3.35945 28.7648C5.13882 30.5625 7.28354 31.1251 9.71242 31.2486C12.2157 31.3927 19.7189 31.3927 22.2222 31.2486C24.651 31.132 26.8025 30.5693 28.5751 28.7648C30.3477 26.9671 30.9025 24.7852 31.0243 22.3219C31.1664 19.7832 31.1664 12.1808 31.0243 9.64205ZM27.7903 25.0459C27.2626 26.3907 26.241 27.4268 24.9081 27.9688C22.9123 28.7716 18.1763 28.5864 15.9707 28.5864C13.7651 28.5864 9.02232 28.7648 7.03321 27.9688C5.70713 27.4337 4.68552 26.3976 4.15103 25.0459C3.35945 23.0218 3.54212 18.2188 3.54212 15.982C3.54212 13.7452 3.36621 8.93532 4.15103 6.91807C4.67875 5.57324 5.70037 4.53717 7.03321 3.99512C9.02908 3.19233 13.7651 3.37759 15.9707 3.37759C18.1763 3.37759 22.919 3.19919 24.9081 3.99512C26.2342 4.53031 27.2558 5.56638 27.7903 6.91807C28.5819 8.94219 28.3992 13.7452 28.3992 15.982C28.3992 18.2188 28.5819 23.0286 27.7903 25.0459Z" fill="#A65400"/>
</svg>
