<svg width="34" height="35" viewBox="0 0 34 35" fill="none" xmlns="http://www.w3.org/2000/svg">
<path d="M33.5578 17.4966C33.5578 26.8967 26.0479 34.5129 16.7789 34.5129C15.0469 34.5129 13.3825 34.2453 11.8129 33.7513C12.4962 32.6191 13.5178 30.7666 13.8967 29.2914C14.0997 28.4954 14.9386 25.2431 14.9386 25.2431C15.4866 26.2998 17.0833 27.1986 18.7815 27.1986C23.8422 27.1986 27.4889 22.478 27.4889 16.6115C27.4889 10.992 22.9627 6.78597 17.1442 6.78597C9.90495 6.78597 6.05528 11.7125 6.05528 17.0849C6.05528 19.5825 7.36782 22.6907 9.45842 23.6787C9.7764 23.8297 9.94554 23.7611 10.02 23.4523C10.0741 23.219 10.3583 22.0595 10.4868 21.5243C10.5274 21.3527 10.5071 21.2018 10.3718 21.0371C9.68845 20.1794 9.13366 18.615 9.13366 17.1535C9.13366 13.4004 11.9347 9.77068 16.7112 9.77068C20.8315 9.77068 23.7205 12.6182 23.7205 16.6938C23.7205 21.2978 21.4269 24.4884 18.4432 24.4884C16.7992 24.4884 15.5611 23.1092 15.9602 21.4145C16.4338 19.3904 17.3472 17.2084 17.3472 15.747C17.3472 14.4433 16.6571 13.3523 15.2228 13.3523C13.5381 13.3523 12.185 15.1157 12.185 17.4829C12.185 18.9924 12.6856 20.0079 12.6856 20.0079C12.6856 20.0079 11.0281 27.13 10.7236 28.4611C10.3853 29.9295 10.5206 32.0016 10.6627 33.3465C4.42475 30.8695 0 24.7079 0 17.4966C0 8.0965 7.5099 0.480347 16.7789 0.480347C26.0479 0.480347 33.5578 8.0965 33.5578 17.4966Z" fill="#A65400"/>
</svg>
